# xmcd
# 
# Track frame offsets:
#     150
#     18062
#     36752
#     53725
#     72992
#     87085
#     103637
#     117795
#     133735
#     148510
#     164185
#     181577
#     215100
# 
# Disc length: 4436
# 
# Revision: 1
# Processed by: cddbd v1.5.2PL0 Copyright (c) Steve Scherf et al.
# Submitted via: BonkEnc v1.0
# 
DISCID=b311520d
DTITLE=Terri Clark - Fearless
DYEAR=2000
DGENRE=Country
TTITLE0=No Fear
TTITLE1=Sometimes Goodbye
TTITLE2=Take My Time
TTITLE3=Empty
TTITLE4=Getting There
TTITLE5=Easy From Now On
TTITLE6=A Little Gasoline
TTITLE7=Last Thing I Wanted
TTITLE8=To Tell You Everything
TTITLE9=The Real Thing
TTITLE10=Midnight's Gone
TTITLE11=Good Mother
TTITLE12=Data Track
EXTD=YEAR: 2000 ID3G:   2
EXTT0=
EXTT1=
EXTT2=
EXTT3=
EXTT4=
EXTT5=
EXTT6=
EXTT7=
EXTT8=
EXTT9=
EXTT10=
EXTT11=
EXTT12=
PLAYORDER=
